# xmcd
#
# Track frame offsets:
#	150
#	21868
#	48640
#	74861
#	95292
#	113771
#	133281
#	149751
#	169531
#	197623
#	221690
#	240421
#	261746
#	278935
#	296111
#	324953
#	338269
#
# Disc length: 4745 seconds
#
# Revision: 0
# Processed by: cddbd v1.5.2PL0 Copyright (c) Steve Scherf et al.
# Submitted via: EasyCDDAExtractor 2010.6.0.0
#
DISCID=13128711
DTITLE=Various Artist - 2010 Steppers Go 2 To Work Part VI
DYEAR=1900
DGENRE=
TTITLE0=Daniel Ash - Lights Out
TTITLE1=Charles Webster - Ready
TTITLE2=DJ Calvin - I Just Come To Love You
TTITLE3=Marc Antoin - Shake It Out
TTITLE4=K. Blaze/Tim Jonz - K Got Blaze (Aint' No Love)
TTITLE5=KEM - Share My Love
TTITLE6=KEM - When I'm Loving You
TTITLE7=Ne-Yo - Champagne Life
TTITLE8=DJ Calvin - Ohh, Dah Dah
TTITLE9=Stoned Love - Good Chillaz
TTITLE10=Stretch Money - Take Money 2 Make Money
TTITLE11=Snoop Dogg/Jazmine Sullivan - Different Languages
TTITLE12=Calvin Richardson - Feels Like We Sexin'
TTITLE13=Sorrocco - Get To Know
TTITLE14=Lenny White - East St. Louis
TTITLE15=Drake/Swizz Beats/T.I. - Fancy
TTITLE16=Fantasia - Collard Greena and Cornbread
EXTD=
EXTT0=
EXTT1=
EXTT2=
EXTT3=
EXTT4=
EXTT5=
EXTT6=
EXTT7=
EXTT8=
EXTT9=
EXTT10=
EXTT11=
EXTT12=
EXTT13=
EXTT14=
EXTT15=
EXTT16=
PLAYORDER=
